<svg xmlns="http://www.w3.org/2000/svg" width="174" height="19" viewBox="0 0 174 19">
    <g fill="none" fill-rule="evenodd">
        <path fill="#6599A3" d="M.656 2.4h5.472c2.61 0 4.23 1.188 4.23 3.15 0 1.422-.846 2.484-2.214 2.808 1.692.288 2.7 1.494 2.7 3.186 0 2.16-1.746 3.456-4.59 3.456H.656V2.4zM2.78 4.29v3.33h3.24c1.35 0 2.16-.63 2.16-1.692 0-1.062-.81-1.638-2.16-1.638H2.78zm0 5.202v3.618h3.24c1.656 0 2.646-.648 2.646-1.836 0-1.116-.99-1.782-2.646-1.782H2.78zm13.008 3.582V2.4h-2.124V15h7.578v-1.926h-5.454zm16.032-.918h-6.354L24.26 15h-2.214l5.562-12.6h2.178L35.294 15h-2.268l-1.206-2.844zm-.81-1.89l-2.376-5.598-2.376 5.598h4.752zm11.514-7.92c-3.726 0-6.624 2.754-6.624 6.336 0 3.618 2.862 6.408 6.552 6.408 1.782 0 3.6-.81 4.878-2.07l-1.26-1.404c-.954.918-2.25 1.494-3.51 1.494-2.52 0-4.5-1.962-4.5-4.446s1.98-4.428 4.5-4.428c1.278 0 2.592.612 3.51 1.602l1.242-1.548c-1.224-1.206-3.006-1.944-4.788-1.944zM58.196 15h2.556L55.55 7.782 60.428 2.4h-2.502l-6.012 6.516V2.4H49.79V15h2.124v-3.204l2.142-2.358L58.196 15zM71.96 4.92V2.4h-9.342V15h3.204v-4.644h5.652v-2.52h-5.652V4.92h6.138zM81.424 15l-1.872-3.546h-2.52V15h-3.204V2.4h5.634c3.33 0 5.238 1.584 5.238 4.392 0 1.926-.81 3.312-2.286 4.05L85.06 15h-3.636zm-4.392-6.066h2.43c1.386 0 2.196-.702 2.196-2.034 0-1.314-.81-1.98-2.196-1.98h-2.43v4.014zM90.4 15V2.4h-3.204V15h3.204zm2.858-12.6h5.418c3.96 0 6.695 2.556 6.695 6.3 0 3.726-2.772 6.3-6.821 6.3h-5.292V2.4zm3.204 2.556v7.488h2.286c1.962 0 3.366-1.512 3.366-3.726 0-2.232-1.477-3.762-3.51-3.762h-2.142zm18.967 7.722h-5.508L109.004 15h-3.294l5.436-12.6h3.294l5.31 12.6h-3.42l-.9-2.322zm-.936-2.43l-1.8-4.662-1.836 4.662h3.636zm12.29.684V15h-3.187v-3.978L118.936 2.4h3.203l3.043 5.49 2.97-5.49h3.204l-4.572 8.532z"/>
        <path fill="#FFB200" d="M140.295 18.137l-6.158-8.896 6.158-9.104h32.842v18z"/>
        <path fill="#FFF" d="M146.148 7.995c-.208-.273-.432-.464-.673-.572a1.949 1.949 0 0 0-.809-.162c-.58 0-1.03.209-1.349.627-.318.418-.478 1.028-.478 1.83 0 .42.036.778.108 1.075.071.297.175.54.312.728.136.189.304.327.504.416.199.09.424.133.675.133.369 0 .687-.082.956-.247.269-.164.52-.396.754-.695V7.995zm1.274-4.589V13h-.767c-.178 0-.288-.084-.332-.254l-.11-.76a3.501 3.501 0 0 1-.959.803c-.357.201-.77.302-1.238.302-.377 0-.718-.074-1.024-.221a2.155 2.155 0 0 1-.783-.647 3.086 3.086 0 0 1-.5-1.056 5.421 5.421 0 0 1-.176-1.45c0-.49.065-.944.195-1.365.13-.42.318-.784.565-1.091.248-.308.546-.55.897-.725a2.623 2.623 0 0 1 1.19-.263c.399 0 .738.064 1.017.195.28.13.53.314.751.552V3.406h1.274zm6.149 5.557c0-.25-.036-.483-.107-.695a1.58 1.58 0 0 0-.315-.553 1.433 1.433 0 0 0-.507-.364c-.2-.086-.43-.13-.69-.13-.533 0-.952.154-1.257.462-.306.308-.5.734-.582 1.28h3.458zm1.047 3.095c-.157.182-.336.339-.54.47a3.13 3.13 0 0 1-.65.322c-.23.083-.467.143-.712.183a4.602 4.602 0 0 1-.725.058c-.455 0-.876-.077-1.264-.23a2.81 2.81 0 0 1-1.007-.677 3.083 3.083 0 0 1-.663-1.105c-.158-.44-.237-.945-.237-1.518 0-.459.071-.887.214-1.283a3.09 3.09 0 0 1 .614-1.037c.267-.295.593-.526.978-.696a3.207 3.207 0 0 1 1.3-.253c.404 0 .775.066 1.115.198.34.132.634.324.881.575.247.252.44.562.582.93.14.368.211.789.211 1.261 0 .195-.022.326-.065.393-.043.067-.123.101-.24.101h-4.33c.013.394.07.738.17 1.03.1.293.237.536.412.732.176.195.385.34.627.435.243.095.514.143.813.143.282 0 .525-.032.731-.098.206-.065.384-.135.533-.21.15-.077.275-.147.377-.212a.52.52 0 0 1 .27-.098c.104 0 .184.04.24.117l.365.468zm5.011-1.99a9.672 9.672 0 0 0-1.313.12c-.36.064-.652.147-.877.251-.226.104-.388.226-.488.367-.1.141-.15.298-.15.472 0 .164.028.306.082.425.054.12.128.217.22.293a.886.886 0 0 0 .329.165c.126.035.262.053.41.053a2.135 2.135 0 0 0 1.404-.487c.13-.105.257-.224.383-.358v-1.3zm-3.718-2.749a3.778 3.778 0 0 1 1.2-.787c.43-.173.904-.26 1.42-.26.377 0 .71.062 1 .186.29.123.536.295.735.516.2.222.35.486.452.793.102.308.153.648.153 1.021V13h-.566a.54.54 0 0 1-.286-.062c-.065-.04-.117-.118-.156-.23l-.137-.579a5.467 5.467 0 0 1-.5.413c-.165.119-.337.22-.517.305-.18.085-.371.149-.575.192a3.254 3.254 0 0 1-.676.065c-.26 0-.504-.036-.731-.107a1.552 1.552 0 0 1-.995-.88 1.902 1.902 0 0 1-.146-.774c0-.26.07-.51.211-.751.141-.24.37-.456.69-.647.318-.19.734-.347 1.247-.468.514-.121 1.145-.19 1.895-.208v-.481c0-.498-.106-.871-.319-1.118-.212-.247-.524-.37-.935-.37-.278 0-.51.034-.7.104-.188.069-.35.146-.487.23a9.922 9.922 0 0 0-.357.231.553.553 0 0 1-.315.104.36.36 0 0 1-.225-.072.596.596 0 0 1-.153-.168l-.227-.41zm7.963-3.913V13H162.6V3.406h1.274zm5.7 4.127a.355.355 0 0 1-.11.12.283.283 0 0 1-.15.037.478.478 0 0 1-.23-.072 4.847 4.847 0 0 0-.306-.156 2.961 2.961 0 0 0-.42-.156 2.02 2.02 0 0 0-.572-.072c-.182 0-.347.023-.497.069-.15.045-.276.108-.38.188a.841.841 0 0 0-.24.286.77.77 0 0 0-.085.355.59.59 0 0 0 .146.409c.098.108.226.201.384.28.158.078.338.148.54.21.2.064.407.13.617.199.21.07.416.148.617.237.202.09.382.2.54.332.158.132.286.291.383.478.098.186.147.413.147.682 0 .308-.056.593-.166.855a1.87 1.87 0 0 1-.488.679c-.214.19-.48.34-.796.448a3.344 3.344 0 0 1-1.085.163c-.456 0-.876-.076-1.262-.227a3.159 3.159 0 0 1-.968-.579l.299-.488a.386.386 0 0 1 .13-.14.389.389 0 0 1 .208-.048c.082 0 .167.03.253.091.087.06.191.127.313.198a2.058 2.058 0 0 0 1.092.283c.216 0 .405-.027.565-.081.16-.054.294-.128.4-.221a.894.894 0 0 0 .237-.322.963.963 0 0 0 .078-.383.645.645 0 0 0-.146-.433 1.255 1.255 0 0 0-.384-.295 3.08 3.08 0 0 0-.542-.215c-.204-.06-.412-.126-.625-.195-.212-.07-.42-.15-.624-.24a2.143 2.143 0 0 1-.542-.345 1.6 1.6 0 0 1-.384-.507 1.645 1.645 0 0 1-.146-.728c0-.256.053-.5.16-.734.105-.235.26-.44.46-.618.202-.178.451-.32.748-.426a3.01 3.01 0 0 1 1.018-.159c.437 0 .833.07 1.186.208.353.139.655.33.906.572l-.279.462z"/>
    </g>
</svg>
